<?xml version="1.0" encoding="UTF-8"?>
<svg id="OBJECTS" xmlns="http://www.w3.org/2000/svg" xmlns:xlink="http://www.w3.org/1999/xlink" viewBox="0 0 530.51 500.79">
  <defs>
    <style>
      .cls-1 {
        fill: #fff;
      }

      .cls-2 {
        fill: url(#radial-gradient);
      }

      .cls-3 {
        fill: url(#radial-gradient-2);
      }
    </style>
    <radialGradient id="radial-gradient" cx="8.59" cy="97.96" fx="8.59" fy="97.96" r="250.01" gradientTransform="translate(343.87 555.52) rotate(-90) scale(1.98 -1.84)" gradientUnits="userSpaceOnUse">
      <stop offset="0" stop-color="#fd5"/>
      <stop offset=".1" stop-color="#fd5"/>
      <stop offset=".5" stop-color="#ff543e"/>
      <stop offset="1" stop-color="#c837ab"/>
    </radialGradient>
    <radialGradient id="radial-gradient-2" cx="465.1" cy="141.53" fx="465.1" fy="141.53" r="250.02" gradientTransform="translate(-641.16 -266.5) rotate(78.68) scale(.89 -3.65) skewX(-.01)" gradientUnits="userSpaceOnUse">
      <stop offset="0" stop-color="#3771c8"/>
      <stop offset=".13" stop-color="#3771c8"/>
      <stop offset="1" stop-color="#60f" stop-opacity="0"/>
    </radialGradient>
  </defs>
  <path class="cls-2" d="m280.54,0c-104.4,0-134.93.11-140.86.6-21.42,1.78-34.76,5.15-49.28,12.38-11.19,5.56-20.02,12-28.73,21.03-15.87,16.47-25.48,36.73-28.96,60.82-1.69,11.69-2.18,14.08-2.28,73.8-.04,19.91,0,46.11,0,81.25,0,104.31.12,134.81.62,140.74,1.73,20.85,5,33.96,11.92,48.31,13.23,27.46,38.5,48.08,68.27,55.77,10.31,2.65,21.69,4.12,36.31,4.81,6.19.27,69.31.46,132.47.46s126.31-.08,132.35-.38c16.92-.8,26.75-2.12,37.62-4.92,29.96-7.73,54.77-28.04,68.27-55.89,6.79-14,10.23-27.62,11.79-47.37.34-4.31.48-72.99.48-141.58s-.15-137.16-.49-141.47c-1.58-20.08-5.02-33.58-12.03-47.85-5.75-11.68-12.14-20.4-21.4-29.32-16.54-15.8-36.77-25.42-60.88-28.89-11.68-1.69-14.01-2.19-73.78-2.29h-81.39Z"/>
  <path class="cls-3" d="m280.54.02C176.14.02,145.61.13,139.67.62c-21.42,1.78-34.76,5.15-49.28,12.38-11.19,5.56-20.02,12-28.73,21.03-15.87,16.47-25.48,36.73-28.96,60.82-1.69,11.69-2.19,14.08-2.29,73.8-.04,19.91,0,46.11,0,81.25,0,104.31.12,134.81.62,140.74,1.73,20.85,5,33.96,11.92,48.31,13.23,27.46,38.5,48.08,68.27,55.77,10.31,2.65,21.69,4.12,36.31,4.81,6.19.27,69.31.46,132.47.46s126.31-.08,132.35-.38c16.92-.8,26.75-2.12,37.62-4.92,29.96-7.73,54.77-28.04,68.27-55.89,6.79-14,10.23-27.62,11.79-47.37.34-4.31.48-72.99.48-141.58s-.15-137.16-.49-141.47c-1.58-20.08-5.02-33.58-12.03-47.85-5.75-11.68-12.13-20.4-21.4-29.32-16.54-15.8-36.77-25.42-60.88-28.89C424.02.63,421.7.12,361.93.02h-81.39Z"/>
  <path class="cls-1" d="m280.47,65.39c-50.14,0-56.43.22-76.13,1.12-19.65.9-33.07,4.01-44.81,8.58-12.14,4.72-22.44,11.02-32.71,21.29-10.27,10.26-16.58,20.56-21.31,32.7-4.58,11.74-7.69,25.16-8.58,44.81-.88,19.69-1.11,25.99-1.11,76.13s.22,56.41,1.12,76.11c.9,19.65,4.02,33.07,8.58,44.81,4.72,12.14,11.03,22.44,21.29,32.71,10.26,10.27,20.56,16.59,32.69,21.31,11.75,4.57,25.17,7.68,44.82,8.58,19.69.9,25.98,1.12,76.12,1.12s56.42-.22,76.11-1.12c19.65-.9,33.09-4.01,44.83-8.58,12.14-4.72,22.42-11.04,32.68-21.31,10.27-10.26,16.58-20.56,21.31-32.7,4.54-11.74,7.65-25.16,8.58-44.81.88-19.69,1.12-25.97,1.12-76.11s-.23-56.43-1.12-76.13c-.92-19.65-4.04-33.07-8.58-44.81-4.73-12.14-11.04-22.44-21.31-32.71-10.27-10.27-20.54-16.58-32.69-21.29-11.77-4.57-25.19-7.68-44.85-8.58-19.69-.9-25.96-1.12-76.12-1.12h.06Zm-16.56,33.27c4.92,0,10.4,0,16.56,0,49.29,0,55.14.18,74.6,1.06,18,.82,27.77,3.83,34.28,6.36,8.62,3.35,14.76,7.35,21.22,13.81,6.46,6.46,10.46,12.62,13.82,21.23,2.53,6.5,5.54,16.27,6.36,34.27.88,19.46,1.08,25.31,1.08,74.58s-.19,55.12-1.08,74.58c-.82,18-3.83,27.77-6.36,34.27-3.35,8.62-7.35,14.75-13.82,21.21-6.46,6.46-12.6,10.46-21.22,13.81-6.5,2.54-16.28,5.54-34.28,6.36-19.46.88-25.31,1.08-74.6,1.08s-55.14-.19-74.6-1.08c-18-.83-27.77-3.84-34.28-6.37-8.62-3.35-14.77-7.35-21.23-13.81-6.46-6.46-10.46-12.6-13.82-21.22-2.53-6.5-5.54-16.27-6.36-34.27-.88-19.46-1.06-25.31-1.06-74.61s.18-55.12,1.06-74.58c.82-18,3.83-27.77,6.36-34.28,3.35-8.62,7.35-14.77,13.82-21.23,6.46-6.46,12.62-10.46,21.23-13.82,6.51-2.54,16.28-5.54,34.28-6.37,17.03-.77,23.63-1,58.04-1.04v.05Zm115.11,30.66c-12.23,0-22.16,9.91-22.16,22.15s9.92,22.15,22.16,22.15,22.15-9.92,22.15-22.15-9.92-22.16-22.15-22.16h0Zm-98.55,25.89c-52.36,0-94.81,42.45-94.81,94.81s42.45,94.79,94.81,94.79,94.8-42.43,94.8-94.79-42.44-94.81-94.8-94.81h0Zm0,33.27c33.99,0,61.54,27.55,61.54,61.54s-27.55,61.54-61.54,61.54-61.54-27.56-61.54-61.54,27.55-61.54,61.54-61.54Z"/>
</svg>